Simulation
nRows=16
nColumns=15
endheader
time  TH_x TH_y TH_z SC_y  SC_z  SC_x  AC_y  AC_z  AC_x  GH_y  GH_z  GH_yy  EL_x  PS_y
1.7000000000000002  0.000000  0.000000  0.000000  -31.2388350633214  10.361282291596023  14.58998319542873  64.29843472357011  16.916395328658528  2.4697936413157833  53.417066537203354  58.2580134052801  -51.27641160296402  23.040019315816302  0.000000
1.7340000000000002  0.000000  0.000000  0.000000  -31.240062969450488  10.35338502048814  14.469987893575396  64.23806225824066  16.997860137719922  2.4804307571544175  53.25014315864029  58.083621372943924  -50.8803982119204  23.03994312616615  0.000000
1.7680000000000002  0.000000  0.000000  0.000000  -31.234088361330503  10.315915176614444  14.326711797546439  64.18547709903342  17.039395530231037  2.4526173108186207  53.045026167672  57.827752346013355  -50.39162126339065  23.046205113475025  0.000000
1.802  0.000000  0.000000  0.000000  -31.221566731184772  10.248462502892274  14.160245885637051  64.13989294794031  17.043024400764732  2.38660210917722  52.80154031864466  57.4911854543629  -49.811162057029485  23.058865226603057  0.000000
1.836  0.000000  0.000000  0.000000  -31.20150167668523  10.150093576696229  13.969885193520929  64.10024903820239  17.01161486143592  2.2830412286473236  52.51928165157666  57.07486454878067  -49.1404667348513  23.077894391307886  0.000000
1.87  0.000000  0.000000  0.000000  -31.17429563625657  10.020541710826834  13.755949215280994  64.06499325971258  16.948156746604887  2.1430952821484013  52.197528722003284  56.57938239335371  -48.3808240608059  23.10312254251281  0.000000
1.9040000000000001  0.000000  0.000000  0.000000  -31.13909154496402  9.85980932021504  13.517894776962105  64.031935485878  16.855646167914816  1.9683420788656751  51.83533625946172  56.005402149169996  -47.53367319826115  23.134515715505675  0.000000
1.9380000000000002  0.000000  0.000000  0.000000  -31.096675741247793  9.668553943038104  13.256544946525924  63.9980744864665  16.736713434652675  1.760473236281023  51.43199488272678  55.353497326743835  -46.60060638286915  23.17218043117944  0.000000
1.9720000000000002  0.000000  0.000000  0.000000  -31.046103863666424  9.44672255503239  12.972498953365857  63.96108552353539  16.595123260802367  1.5209752222329331  50.98651294672709  54.62418661870331  -45.58422476623595  23.21568549623797  0.000000
2.0060000000000002  0.000000  0.000000  0.000000  -30.988506943705907  9.19497407481756  12.667741457010594  63.91921416757397  16.43410452040846  1.2520430700245808  50.4976422678631  53.81725712940005  -44.487092220142465  23.26448299004431  0.000000
2.04  0.000000  0.000000  0.000000  -30.923859874000723  8.91386134822287  12.343336245803384  63.870662264116625  16.256267737611036  0.955427933020097  49.964316348627214  52.93243607132256  -43.311412661814266  23.31862179757096  0.000000
2.0740000000000003  0.000000  0.000000  0.000000  -30.853976629799238  8.6056945664227  12.001524334624037  63.81320082806504  16.06233363617993  0.633716983064373  49.38699976494716  51.96919952980058  -42.060165296396214  23.377196448069515  0.000000
2.108  0.000000  0.000000  0.000000  -30.776630389402207  8.273022281180571  11.644914746123264  63.74396507645847  15.853762406216767  0.28907324316667954  48.76700685793149  50.924618615704205  -40.73452365958391  23.439845341025713  0.000000
2.1420000000000003  0.000000  0.000000  0.000000  -30.695858634940652  7.921428407006279  11.277306406330595  63.661121835759154  15.6271967649599  -0.07458632408146565  48.11031144316902  49.797680810893965  -39.33907812854416  23.50688400153666  0.000000
2.176  0.000000  0.000000  0.000000  -30.61631918760455  7.553470892425801  10.898737903822052  63.56166100459513  15.378294920419814  -0.45312545536374677  47.426231303483185  48.59182661219081  -37.87951538508128  23.578450854207336  0.000000
2.21  0.000000  0.000000  0.000000  -30.533245773026643  7.16540655827843  10.509108306242112  63.44448052701216  15.108180801434047  -0.850937215931404  46.71629061086658  47.31111488405669  -36.35870835136437  23.655336678903655  0.000000
